<svg width="284.000000" height="160.000000" viewBox="0 0 284 160" fill="none" xmlns="http://www.w3.org/2000/svg" xmlns:xlink="http://www.w3.org/1999/xlink">
	<desc>
			Created with Pixso.
	</desc>
	<defs/>
	<path id="Vector" d="M47.0552 111.867C69.0811 112.863 74.4209 90.9543 75.0879 66.0581C75.7554 48.7966 74.4209 31.2034 73.7534 17.2614L92.4419 17.9253L93.4429 0.99585L33.3726 0L33.3726 16.5975L55.3984 17.2614C57.0669 25.5602 58.7358 45.1453 58.0684 63.7345C57.4009 86.9709 52.7285 94.9377 46.3877 94.6058C30.7026 94.2738 20.6909 64.3983 19.0225 51.1204L0 56.7634C7.0083 82.3236 23.3608 111.203 47.0552 111.867ZM100.451 93.61C115.469 93.9419 128.818 79.3361 129.151 62.4066C129.485 45.8091 117.138 31.2034 102.12 30.8713C86.1011 30.5394 72.752 45.4772 73.0859 63.0706C73.0859 79.0042 85.7676 93.278 100.451 93.61ZM102.12 47.4689C107.459 47.4689 111.798 54.1079 111.798 62.0747C111.798 70.3734 106.458 77.3444 100.451 77.0125C95.1118 77.0125 90.4395 70.3734 90.4395 62.7386C90.4395 54.4398 95.7793 47.4689 102.12 47.4689ZM124.813 160C147.506 160 161.856 126.141 168.531 109.544L205.575 106.888C242.284 104.232 284 98.2572 284 76.0166C284 55.1038 255.3 58.7551 255.3 53.444C255.3 47.137 274.656 48.1328 280.663 49.1287L280.663 32.5311C272.653 31.8672 236.277 33.527 236.277 54.7717C236.277 72.697 266.646 66.0581 266.646 76.0166C266.646 84.9792 231.939 88.2987 204.24 90.2904L174.538 92.2822C180.211 75.6847 189.89 41.4938 189.556 35.5187L172.536 32.1992C170.2 46.1411 162.19 77.6764 153.18 77.6764C142.167 77.6764 143.835 40.4979 145.838 33.1951L127.817 32.863C125.147 50.4564 126.815 90.2904 149.843 93.9419L81.0952 98.2572C88.437 126.473 101.453 160 124.813 160ZM149.175 110.539C139.831 132.448 131.821 143.402 124.813 143.402C118.139 143.402 110.797 133.444 103.789 113.527L149.175 110.539ZM210.247 95.6017C225.264 95.9336 238.613 81.3278 238.947 64.0664C239.281 47.4689 226.933 33.1951 211.916 32.863C195.896 32.5311 182.547 47.4689 182.881 65.0623C182.881 80.9958 195.563 95.2697 210.247 95.6017ZM211.916 49.4606C217.255 49.4606 221.593 56.0996 221.593 63.7345C221.593 72.3651 216.254 79.3361 210.247 79.0042C204.907 79.0042 200.235 72.3651 200.235 64.7303C199.901 56.4315 205.241 49.4606 211.916 49.4606Z" fill="#FFFFFF" fill-opacity="1.000000" fill-rule="nonzero"/>
</svg>
