<svg width="122.000000" height="69.000000" viewBox="0 0 122 69" fill="none" xmlns="http://www.w3.org/2000/svg" xmlns:xlink="http://www.w3.org/1999/xlink">
	<desc>
			Created with Pixso.
	</desc>
	<defs/>
	<path id="Vector" d="M20.2139 48.2427C29.6758 48.6722 31.9695 39.2241 32.2561 28.4875C32.543 21.0436 31.9695 13.4564 31.6826 7.44397L39.7109 7.73035L40.1411 0.429443L14.3362 0L14.3362 7.15771L23.7979 7.44397C24.5146 11.0228 25.2314 19.4689 24.9448 27.4855C24.658 37.5062 22.6509 40.9419 19.9272 40.7987C13.1892 40.6556 8.88843 27.7717 8.17163 22.0457L0 24.4792C3.0105 35.5021 10.0352 47.9564 20.2139 48.2427ZM43.1516 40.3693C49.6028 40.5125 55.3372 34.2137 55.4807 26.9128C55.624 19.7551 50.3196 13.4564 43.8684 13.3132C36.9871 13.1702 31.2527 19.6121 31.396 27.1992C31.396 34.0706 36.8438 40.2262 43.1516 40.3693ZM43.8684 20.4709C46.1621 20.4709 48.0259 23.334 48.0259 26.7697C48.0259 30.3485 45.7322 33.3547 43.1516 33.2117C40.8579 33.2117 38.8508 30.3485 38.8508 27.056C38.8508 23.4772 41.1445 20.4709 43.8684 20.4709ZM53.6169 69C63.3655 69 69.53 54.3983 72.3972 47.2407L88.3103 46.0955C104.08 44.9502 122 42.3734 122 32.7821C122 23.7634 109.671 25.3381 109.671 23.0477C109.671 20.3278 117.986 20.7573 120.566 21.1868L120.566 14.0291C117.126 13.7428 101.5 14.4585 101.5 23.6204C101.5 31.3506 114.545 28.4875 114.545 32.7821C114.545 36.6473 99.6357 38.0789 87.7368 38.9377L74.9778 39.7966C77.4148 32.639 81.5723 17.8942 81.429 15.3174L74.1174 13.8859C73.114 19.8983 69.6733 33.4979 65.8025 33.4979C61.0718 33.4979 61.7886 17.4647 62.6487 14.3153L54.9072 14.1722C53.7603 21.7593 54.4771 38.9377 64.3689 40.5125L34.8367 42.3734C37.9907 54.5415 43.5818 69 53.6169 69ZM64.0823 47.6702C60.0681 57.1183 56.6274 61.8423 53.6169 61.8423C50.7498 61.8423 47.5957 57.5477 44.5852 48.9585L64.0823 47.6702ZM90.3174 41.2283C96.7686 41.3713 102.503 35.0726 102.646 27.6287C102.79 20.4709 97.4854 14.3153 91.0342 14.1722C84.1528 14.0291 78.4185 20.4709 78.5618 28.0581C78.5618 34.9294 84.0095 41.0851 90.3174 41.2283ZM91.0342 21.3298C93.3279 21.3298 95.1917 24.193 95.1917 27.4855C95.1917 31.2075 92.8977 34.2137 90.3174 34.0706C88.0234 34.0706 86.0164 31.2075 86.0164 27.9149C85.873 24.3361 88.167 21.3298 91.0342 21.3298Z" fill="#00E460" fill-opacity="1.000000" fill-rule="nonzero"/>
</svg>
